<svg width="246.000000" height="42.000000" viewBox="0 0 246 42" fill="none" xmlns="http://www.w3.org/2000/svg" xmlns:xlink="http://www.w3.org/1999/xlink">
	<desc>
			Created with Pixso.
	</desc>
	<defs>
		<clipPath id="clip651_11749">
			<rect id="Telegram - Original" rx="-0.500000" width="41.000000" height="41.000000" transform="translate(136.500000 0.500000)" fill="white" fill-opacity="0"/>
		</clipPath>
		<clipPath id="clip651_11750">
			<rect id="Instagram - Original" rx="-0.500000" width="41.000000" height="41.000000" transform="translate(68.500000 0.500000)" fill="white" fill-opacity="0"/>
		</clipPath>
		<clipPath id="clip651_11751">
			<rect id="Facebook - Original" rx="-0.500000" width="41.000000" height="41.000000" transform="translate(0.500000 0.500000)" fill="white" fill-opacity="0"/>
		</clipPath>
		<linearGradient x1="157.000000" y1="0.000000" x2="157.000000" y2="41.688503" id="paint_linear_4_575_0" gradientUnits="userSpaceOnUse">
			<stop stop-color="#2AABEE"/>
			<stop offset="1.000000" stop-color="#229ED9"/>
		</linearGradient>
		<linearGradient x1="109.975395" y1="20.995903" x2="68.000000" y2="20.995903" id="paint_linear_4_582_0" gradientUnits="userSpaceOnUse">
			<stop stop-color="#4D5EF6"/>
			<stop offset="1.000000" stop-color="#F64D4D"/>
		</linearGradient>
		<linearGradient x1="99.787109" y1="21.000004" x2="78.212891" y2="21.000004" id="paint_linear_4_583_0" gradientUnits="userSpaceOnUse">
			<stop stop-color="#4D5EF6"/>
			<stop offset="1.000000" stop-color="#F64D4D"/>
		</linearGradient>
		<linearGradient x1="102.732033" y1="9.785942" x2="97.695312" y2="9.785942" id="paint_linear_4_584_0" gradientUnits="userSpaceOnUse">
			<stop stop-color="#4D5EF6"/>
			<stop offset="1.000000" stop-color="#F64D4D"/>
		</linearGradient>
	</defs>
	<rect id="TikTok - Original" rx="-0.500000" width="41.000000" height="41.000000" transform="translate(204.500000 0.500000)" fill="#FFFFFF" fill-opacity="0"/>
	<path id="Vector" d="M234.05 15.16C236.75 17.09 240.06 18.23 243.64 18.23L243.64 11.33C242.96 11.33 242.29 11.26 241.62 11.12L241.62 16.55C238.05 16.55 234.74 15.41 232.04 13.48L232.04 27.56C232.04 34.6 226.35 40.32 219.33 40.32C216.71 40.32 214.28 39.52 212.26 38.16C214.56 40.53 217.78 42 221.34 42C228.36 42 234.05 36.28 234.05 29.24L234.05 15.16L234.05 15.16ZM236.54 8.19C235.16 6.68 234.25 4.72 234.05 2.56L234.05 1.67L232.15 1.67C232.63 4.42 234.26 6.77 236.54 8.19ZM216.7 32.75C215.92 31.74 215.51 30.5 215.51 29.22C215.51 26 218.11 23.38 221.32 23.38C221.92 23.38 222.52 23.48 223.09 23.66L223.09 16.6C222.42 16.51 221.75 16.47 221.08 16.49L221.08 21.98C220.5 21.8 219.91 21.7 219.31 21.7C216.1 21.7 213.5 24.32 213.5 27.54C213.5 29.82 214.8 31.79 216.7 32.75Z" fill="#FF004F" fill-opacity="1.000000" fill-rule="nonzero"/>
	<path id="Vector" d="M232.04 13.48C234.74 15.41 238.05 16.55 241.62 16.55L241.62 11.12C239.63 10.69 237.86 9.65 236.54 8.19C234.26 6.77 232.63 4.42 232.15 1.67L227.14 1.67L227.14 29.24C227.13 32.45 224.53 35.05 221.32 35.05C219.43 35.05 217.76 34.15 216.69 32.75C214.8 31.79 213.5 29.82 213.5 27.54C213.5 24.32 216.1 21.7 219.31 21.7C219.93 21.7 220.52 21.8 221.08 21.98L221.08 16.49C214.18 16.63 208.63 22.28 208.63 29.24C208.63 32.71 210.01 35.86 212.26 38.16C214.28 39.52 216.71 40.32 219.33 40.32C226.35 40.32 232.04 34.6 232.04 27.56L232.04 13.48L232.04 13.48Z" fill="#1E1E1E" fill-opacity="1.000000" fill-rule="nonzero"/>
	<path id="Vector" d="M241.62 11.12L241.62 9.65C239.83 9.66 238.06 9.15 236.54 8.19C237.89 9.68 239.67 10.7 241.62 11.12ZM232.15 1.67C232.1 1.41 232.07 1.15 232.04 0.88L232.04 0L225.12 0L225.12 27.56C225.11 30.77 222.52 33.37 219.31 33.37C218.37 33.37 217.48 33.15 216.7 32.75C217.76 34.15 219.43 35.05 221.32 35.05C224.53 35.05 227.13 32.45 227.14 29.24L227.14 1.67L232.15 1.67ZM221.08 16.49L221.08 14.92C220.5 14.84 219.91 14.8 219.33 14.8C212.31 14.8 206.62 20.51 206.62 27.56C206.62 31.98 208.86 35.87 212.26 38.16C210.01 35.86 208.63 32.71 208.63 29.24C208.63 22.28 214.18 16.63 221.08 16.49Z" fill="#00F2EA" fill-opacity="1.000000" fill-rule="nonzero"/>
	<rect id="Telegram - Original" rx="-0.500000" width="41.000000" height="41.000000" transform="translate(136.500000 0.500000)" fill="#FFFFFF" fill-opacity="0"/>
	<g clip-path="url(#clip651_11749)">
		<path id="Oval" d="M178 21C178 32.59 168.59 42 157 42C145.4 42 136 32.59 136 21C136 9.4 145.4 0 157 0C168.59 0 178 9.4 178 21Z" fill="url(#paint_linear_4_575_0)" fill-opacity="1.000000" fill-rule="evenodd"/>
		<path id="Path 3" d="M145.5 20.77C151.62 18.11 155.71 16.35 157.75 15.5C163.58 13.07 164.79 12.65 165.58 12.64C165.76 12.64 166.14 12.68 166.4 12.88C166.61 13.05 166.67 13.29 166.69 13.45C166.72 13.61 166.76 13.99 166.73 14.28C166.41 17.6 165.05 25.66 164.35 29.38C164.06 30.95 163.48 31.48 162.91 31.53C161.7 31.64 160.77 30.72 159.59 29.95C157.74 28.74 156.7 27.98 154.9 26.8C152.83 25.43 154.17 24.68 155.35 23.46C155.66 23.13 161.04 18.25 161.14 17.8C161.15 17.75 161.17 17.54 161.04 17.43C160.92 17.32 160.74 17.36 160.61 17.39C160.42 17.43 157.47 19.38 151.75 23.25C150.91 23.82 150.15 24.1 149.47 24.09C148.72 24.07 147.28 23.66 146.21 23.31C144.89 22.89 143.85 22.66 143.94 21.93C143.99 21.56 144.51 21.17 145.5 20.77Z" fill="#FFFFFF" fill-opacity="1.000000" fill-rule="evenodd"/>
	</g>
	<rect id="Instagram - Original" rx="-0.500000" width="41.000000" height="41.000000" transform="translate(68.500000 0.500000)" fill="#FFFFFF" fill-opacity="0"/>
	<g clip-path="url(#clip651_11750)">
		<path id="Vector" d="M89 3.78C94.61 3.78 95.27 3.8 97.48 3.9C99.53 3.99 100.64 4.33 101.37 4.62C102.35 5 103.06 5.46 103.79 6.19C104.52 6.93 104.97 7.62 105.35 8.6C105.64 9.34 105.98 10.45 106.07 12.5C106.17 14.71 106.2 15.38 106.2 20.98C106.2 26.59 106.17 27.25 106.07 29.46C105.98 31.51 105.64 32.62 105.35 33.36C104.97 34.33 104.52 35.04 103.79 35.77C103.05 36.51 102.35 36.96 101.37 37.33C100.64 37.62 99.52 37.97 97.48 38.06C95.26 38.16 94.6 38.18 89 38.18C83.38 38.18 82.72 38.16 80.51 38.06C78.46 37.97 77.35 37.62 76.62 37.33C75.64 36.96 74.93 36.5 74.21 35.77C73.47 35.03 73.02 34.33 72.64 33.36C72.35 32.62 72.01 31.5 71.92 29.46C71.82 27.25 71.79 26.58 71.79 20.98C71.79 15.37 71.82 14.7 71.92 12.5C72.01 10.45 72.35 9.34 72.64 8.6C73.02 7.62 73.47 6.92 74.21 6.19C74.94 5.45 75.64 5 76.62 4.62C77.35 4.33 78.47 3.99 80.51 3.9C82.72 3.8 83.38 3.78 89 3.78ZM89 0C83.29 0 82.58 0.02 80.34 0.12C78.11 0.22 76.58 0.58 75.25 1.09C73.86 1.64 72.69 2.35 71.52 3.52C70.35 4.69 69.64 5.86 69.09 7.24C68.58 8.58 68.22 10.1 68.12 12.33C68.02 14.58 68 15.29 68 21C68 26.7 68.02 27.41 68.12 29.65C68.22 31.88 68.58 33.41 69.09 34.74C69.64 36.13 70.35 37.3 71.52 38.47C72.69 39.63 73.86 40.35 75.24 40.89C76.58 41.41 78.1 41.76 80.33 41.86C82.57 41.96 83.29 41.99 88.99 41.99C94.69 41.99 95.4 41.96 97.64 41.86C99.87 41.76 101.41 41.41 102.74 40.89C104.11 40.35 105.29 39.63 106.45 38.47C107.62 37.3 108.34 36.13 108.87 34.75C109.39 33.41 109.75 31.89 109.85 29.66C109.95 27.42 109.97 26.7 109.97 21C109.97 15.3 109.95 14.59 109.85 12.35C109.75 10.12 109.39 8.58 108.87 7.25C108.35 5.86 107.64 4.69 106.47 3.52C105.3 2.36 104.13 1.64 102.75 1.1C101.41 0.58 99.89 0.23 97.66 0.13C95.41 0.02 94.7 0 89 0Z" fill="url(#paint_linear_4_582_0)" fill-opacity="1.000000" fill-rule="nonzero"/>
		<path id="Vector" d="M89 10.21C83.04 10.21 78.21 15.04 78.21 21C78.21 26.95 83.04 31.78 89 31.78C94.95 31.78 99.78 26.95 99.78 21C99.78 15.04 94.95 10.21 89 10.21ZM89 27.99C85.13 27.99 82 24.86 82 21C82 17.13 85.13 14 89 14C92.86 14 95.99 17.13 95.99 21C95.99 24.86 92.86 27.99 89 27.99Z" fill="url(#paint_linear_4_583_0)" fill-opacity="1.000000" fill-rule="nonzero"/>
		<path id="Vector" d="M102.73 9.78C102.73 11.17 101.6 12.3 100.21 12.3C98.81 12.3 97.69 11.17 97.69 9.78C97.69 8.39 98.82 7.26 100.21 7.26C101.6 7.26 102.73 8.4 102.73 9.78Z" fill="url(#paint_linear_4_584_0)" fill-opacity="1.000000" fill-rule="nonzero"/>
	</g>
	<rect id="Facebook - Original" rx="-0.500000" width="41.000000" height="41.000000" transform="translate(0.500000 0.500000)" fill="#FFFFFF" fill-opacity="0"/>
	<g clip-path="url(#clip651_11751)">
		<path id="Vector" d="M42 21C42 9.4 32.59 0 21 0C9.4 0 0 9.4 0 21C0 31.48 7.67 40.16 17.71 41.74L17.71 27.07L12.38 27.07L12.38 21L17.71 21L17.71 16.37C17.71 11.1 20.85 8.2 25.65 8.2C27.94 8.2 30.35 8.61 30.35 8.61L30.35 13.78L27.7 13.78C25.09 13.78 24.28 15.4 24.28 17.06L24.28 21L30.1 21L29.17 27.07L24.28 27.07L24.28 41.74C34.32 40.16 42 31.48 42 21Z" fill="#1877F2" fill-opacity="1.000000" fill-rule="nonzero"/>
		<path id="Vector" d="M29.17 27.07L30.1 21L24.28 21L24.28 17.06C24.28 15.4 25.09 13.78 27.7 13.78L30.35 13.78L30.35 8.61C30.35 8.61 27.94 8.2 25.65 8.2C20.85 8.2 17.71 11.1 17.71 16.37L17.71 21L12.38 21L12.38 27.07L17.71 27.07L17.71 41.74C19.89 42.08 22.1 42.08 24.28 41.74L24.28 27.07L29.17 27.07Z" fill="#FFFFFF" fill-opacity="1.000000" fill-rule="nonzero"/>
	</g>
</svg>
